<?xml version="1.0" encoding="utf-8"?>
<!-- Generator: Adobe Illustrator 25.4.1, SVG Export Plug-In . SVG Version: 6.00 Build 0)  -->
<svg version="1.1" id="Layer_1" xmlns="http://www.w3.org/2000/svg" xmlns:xlink="http://www.w3.org/1999/xlink" x="0px" y="0px"
	 viewBox="0 0 267 64" style="enable-background:new 0 0 267 64;" xml:space="preserve">
<style type="text/css">
	.st0{fill:#000000;}
</style>
<path id="Path_65" class="st0" d="M87.2,50.3l4.3-38.6l16.2,34.6l16.2-34.6l4.3,38.6h-2.5l-3.3-30c0,0-14.6,31.4-14.7,31.4L93,20.2
	l-3.3,30L87.2,50.3L87.2,50.3z"/>
<path id="Path_66" class="st0" d="M136.8,27.4h2.2v3c0.8-2.1,2.8-3.5,5-3.5c0.8,0,1.7,0.2,2.4,0.6l-1.1,2c-0.5-0.3-1.1-0.5-1.7-0.4
	c-4.6,0-4.6,6.1-4.6,9v12.3h-2.2L136.8,27.4L136.8,27.4z"/>
<path id="Path_67" class="st0" d="M150.6,46.5c1.1,0,2.1,0.9,2.1,2.1s-0.9,2.1-2.1,2.1c-1.1,0-2.1-0.9-2.1-2.1l0,0
	C148.5,47.5,149.4,46.5,150.6,46.5L150.6,46.5"/>
<path id="Path_68" class="st0" d="M189.6,21.1c-1.4-1.4-3.1-2.6-4.9-3.5c-2-0.9-4.2-1.4-6.4-1.5c-8.6,0-15,6.9-15,15.6
	c0,10.1,8.2,15.2,15.1,15.2c2.4,0,4.8-0.6,6.9-1.7c1.6-0.8,3-1.9,4.3-3.1v5.1c-3.3,2.4-7.2,3.6-11.3,3.6c-11.1,0-19.3-8.4-19.3-19.2
	c0-11.1,8.3-19.4,19.5-19.4c4-0.1,7.9,1.2,11,3.7L189.6,21.1z"/>
<path id="Path_69" class="st0" d="M196,50.3l6.2-39.4l14.3,31.5l14.6-31.6l5.8,39.5h-4.3l-3.5-26l-12.7,27.6l-12.5-27.6l-3.7,26
	C200.2,50.3,196,50.3,196,50.3z"/>
<path id="Path_70" class="st0" d="M262.3,20.3c-0.5-1.1-1.3-2-2.2-2.8c-1.2-0.9-2.7-1.3-4.2-1.3c-3.7,0-6.3,2.3-6.3,5.8
	c-0.1,1.2,0.4,2.5,1.4,3.2c1.1,1,2.5,1.8,3.9,2.3l3.6,1.6c2.1,0.8,4.1,2,5.8,3.5c1.8,1.8,2.8,4.2,2.7,6.8c0,6.9-5.1,11.5-11.8,11.5
	c-3,0.1-5.9-1-8.1-3c-1.8-1.8-3-4.1-3.5-6.6l4-1.1c0.2,1.8,1,3.4,2.2,4.8c1.4,1.4,3.4,2.2,5.4,2.1c5.1,0,7.5-3.6,7.5-7.4
	c0.1-1.7-0.6-3.3-1.9-4.4c-1.1-1-2.5-1.7-4.5-2.6l-3.4-1.6c-1.8-0.7-3.5-1.8-5-3.1c-1.7-1.5-2.7-3.8-2.6-6.1c0-5.8,4.4-9.6,10.5-9.6
	c2.1-0.1,4.2,0.5,6,1.7c1.5,1.1,2.8,2.5,3.6,4.1L262.3,20.3z"/>
<path class="st0" d="M40.7,0H23.3C10.4,0,0,10.4,0,23.3v17.4C0,53.6,10.4,64,23.3,64h17.4C53.6,64,64,53.6,64,40.7V23.3
	C64,10.4,53.6,0,40.7,0z M50.1,41.2c-11.5,3.4-25.3,4.2-36.8,0c-2.8-1-1.6-5.6,1.2-4.6c5.9,2.2,12.5,2.9,18.9,2.6
	c-10.2-1.2-15.2-3.5-16.1-4.5l0.4-3.7c0,0,1.1-10.7,13.9-10.6c12.8,0.1,14,8.8,14.2,10.7c0.2,1.2,0.3,4.1,0.4,6.2
	c0.9-0.2,1.7-0.4,2.6-0.7C51.8,35.7,53,40.3,50.1,41.2z"/>
</svg>
